<?xml version="1.0" encoding="UTF-8" standalone="no"?>
<!-- Created with Inkscape (http://www.inkscape.org/) -->

<svg
   width="700"
   height="700"
   viewBox="0 0 700 700"
   version="1.1"
   id="svg1"
   xml:space="preserve"
   sodipodi:docname="plane-pilot-01.svg"
   inkscape:version="1.3.2 (1:1.3.2+202311252150+091e20ef0f)"
   inkscape:export-filename="plane-pilot-01.png"
   inkscape:export-xdpi="96"
   inkscape:export-ydpi="96"
   xmlns:inkscape="http://www.inkscape.org/namespaces/inkscape"
   xmlns:sodipodi="http://sodipodi.sourceforge.net/DTD/sodipodi-0.dtd"
   xmlns:xlink="http://www.w3.org/1999/xlink"
   xmlns="http://www.w3.org/2000/svg"
   xmlns:svg="http://www.w3.org/2000/svg"><sodipodi:namedview
     id="namedview1"
     pagecolor="#ffffff"
     bordercolor="#000000"
     borderopacity="0.25"
     inkscape:showpageshadow="2"
     inkscape:pageopacity="0.0"
     inkscape:pagecheckerboard="0"
     inkscape:deskcolor="#d1d1d1"
     inkscape:document-units="px"
     inkscape:zoom="0.80309928"
     inkscape:cx="386.62717"
     inkscape:cy="555.34853"
     inkscape:window-width="2256"
     inkscape:window-height="1440"
     inkscape:window-x="0"
     inkscape:window-y="0"
     inkscape:window-maximized="1"
     inkscape:current-layer="layer1"
     inkscape:export-bgcolor="#ffffff00" /><defs
     id="defs1"><path
       d="m 0.13671987,122.02248 c -0.18034502,4.15454 -0.1712209,8.31515 0.027344,12.46886 C 0.1093759,135.55775 0,136.61049 0,137.69058 v 210.04274 c 0,40.16829 32.785425,73.03575 72.858018,73.03575 H 182.50735 c 40.05893,0 72.85802,-32.86746 72.85802,-73.03575 V 137.69058 c 0,-1.23048 -0.13672,-2.40627 -0.19141,-3.6094 0.19904,-4.017 0.2036,-8.04126 0.0137,-12.0587 C 252.09777,54.100052 196.17934,0 127.66901,0 59.145016,0 3.2265889,54.100052 0.13671987,122.00881 Z"
       id="path-1" /><path
       d="m 0.13671987,122.02248 c -0.18034502,4.15454 -0.1712209,8.31515 0.027344,12.46886 C 0.1093759,135.55775 0,136.61049 0,137.69058 v 210.04274 c 0,40.16829 32.785425,73.03575 72.858018,73.03575 H 182.50735 c 40.05893,0 72.85802,-32.86746 72.85802,-73.03575 V 137.69058 c 0,-1.23048 -0.13672,-2.40627 -0.19141,-3.6094 0.19904,-4.017 0.2036,-8.04126 0.0137,-12.0587 C 252.09777,54.100052 196.17934,0 127.66901,0 59.145016,0 3.2265889,54.100052 0.13671987,122.00881 Z"
       id="path-3" /><path
       d="m 0.13671987,122.02248 c -0.18034502,4.15454 -0.1712209,8.31515 0.027344,12.46886 C 0.1093759,135.55775 0,136.61049 0,137.69058 v 210.04274 c 0,40.16829 32.785425,73.03575 72.858018,73.03575 H 182.50735 c 40.05893,0 72.85802,-32.86746 72.85802,-73.03575 V 137.69058 c 0,-1.23048 -0.13672,-2.40627 -0.19141,-3.6094 0.19904,-4.017 0.2036,-8.04126 0.0137,-12.0587 C 252.09777,54.100052 196.17934,0 127.66901,0 59.145016,0 3.2265889,54.100052 0.13671987,122.00881 Z"
       id="path-5" /><clipPath
       clipPathUnits="userSpaceOnUse"
       id="clipPath10"><use
         x="0"
         y="0"
         xlink:href="#g9"
         id="use10" /></clipPath><path
       d="M0.13671987,122.022484 C-0.0436251546,126.177024 -0.0345010275,130.337626 0.164063843,134.491336 C0.109375896,135.557751 8.72789896e-15,136.610494 8.72789896e-15,137.690581 L8.72789896e-15,347.733316 C8.72789896e-15,387.901614 32.7854247,420.769071 72.8580185,420.769071 L182.507354,420.769071 C222.566276,420.769071 255.365372,387.901614 255.365372,347.733316 L255.365372,137.690581 C255.365372,136.460102 255.228652,135.284311 255.173965,134.081176 C255.373,130.064185 255.377563,126.039916 255.187637,122.022484 C252.097767,54.1000524 196.179341,3.79473868e-15 127.669014,3.79473868e-15 C59.1450156,3.79473868e-15 3.22658892,54.1000524 0.13671987,122.008812 L0.13671987,122.022484 Z"
       id="path-1-2" /><path
       d="M0.13671987,122.022484 C-0.0436251546,126.177024 -0.0345010275,130.337626 0.164063843,134.491336 C0.109375896,135.557751 8.72789896e-15,136.610494 8.72789896e-15,137.690581 L8.72789896e-15,347.733316 C8.72789896e-15,387.901614 32.7854247,420.769071 72.8580185,420.769071 L182.507354,420.769071 C222.566276,420.769071 255.365372,387.901614 255.365372,347.733316 L255.365372,137.690581 C255.365372,136.460102 255.228652,135.284311 255.173965,134.081176 C255.373,130.064185 255.377563,126.039916 255.187637,122.022484 C252.097767,54.1000524 196.179341,3.79473868e-15 127.669014,3.79473868e-15 C59.1450156,3.79473868e-15 3.22658892,54.1000524 0.13671987,122.008812 L0.13671987,122.022484 Z"
       id="path-3-9" /><path
       d="M0.13671987,122.022484 C-0.0436251546,126.177024 -0.0345010275,130.337626 0.164063843,134.491336 C0.109375896,135.557751 8.72789896e-15,136.610494 8.72789896e-15,137.690581 L8.72789896e-15,347.733316 C8.72789896e-15,387.901614 32.7854247,420.769071 72.8580185,420.769071 L182.507354,420.769071 C222.566276,420.769071 255.365372,387.901614 255.365372,347.733316 L255.365372,137.690581 C255.365372,136.460102 255.228652,135.284311 255.173965,134.081176 C255.373,130.064185 255.377563,126.039916 255.187637,122.022484 C252.097767,54.1000524 196.179341,3.79473868e-15 127.669014,3.79473868e-15 C59.1450156,3.79473868e-15 3.22658892,54.1000524 0.13671987,122.008812 L0.13671987,122.022484 Z"
       id="path-5-1" /></defs><g
     inkscape:label="Layer 1"
     inkscape:groupmode="layer"
     id="layer1"><g
       id="g10"
       clip-path="url(#clipPath10)"
       transform="matrix(1.1328803,0,0,1.1328803,60.536947,60.074375)"
       style="display:inline"><g
         inkscape:label="Clip"
         id="g9"><g
           transform="matrix(0.13333333,0,0,-0.13333333,-88.063449,589.22363)"
           fill="#000000"
           stroke="none"
           id="g26"
           inkscape:label="Head"><path
             d="m 2306,4810 c -319,-40 -600,-178 -770,-377 -72,-85 -144,-215 -171,-307 -10,-33 -31,-91 -47,-129 -20,-46 -31,-92 -34,-141 -3,-39 -12,-97 -20,-129 -30,-113 -34,-166 -19,-210 31,-89 15,-121 -96,-187 -81,-48 -91,-65 -112,-187 -8,-43 -20,-90 -27,-103 -22,-40 -19,-281 4,-345 19,-52 51,-95 71,-95 6,0 24,-41 39,-91 21,-71 35,-99 67,-134 49,-53 172,-118 254,-135 34,-7 72,-23 88,-36 34,-29 30,-29 102,-4 63,22 75,18 75,-27 0,-19 27,-113 45,-155 6,-14 -4,-22 -51,-43 -175,-77 -350,-240 -427,-397 -58,-117 -79,-197 -83,-318 l -4,-94 L 843,990 C 651,894 476,802 453,786 398,749 378,717 382,673 c 2,-33 -3,-41 -67,-99 -90,-82 -66,-83 61,-3 108,68 273,153 379,195 39,15 156,48 260,74 105,26 216,59 247,73 48,21 59,23 66,12 4,-8 31,-39 60,-70 l 53,-55 3,-133 c 3,-91 14,-184 35,-299 17,-92 31,-170 31,-173 0,-3 106,-5 235,-5 129,0 235,3 235,8 -1,29 -21,32 -230,34 l -215,3 -23,120 c -13,68 -26,180 -29,257 l -6,138 79,-35 c 44,-20 86,-39 94,-44 8,-4 64,-90 125,-189 60,-99 111,-180 112,-178 2,2 -22,58 -53,126 -30,67 -76,177 -101,244 -25,67 -47,124 -49,128 -3,4 14,0 38,-8 24,-9 102,-36 173,-61 140,-49 273,-108 346,-154 38,-24 53,-43 88,-116 23,-47 58,-125 78,-172 39,-95 59,-124 68,-100 10,26 -134,353 -179,406 -14,17 -62,52 -105,77 -43,26 -103,72 -133,104 -83,87 -199,248 -250,347 -64,127 -82,191 -82,305 0,107 20,175 75,262 28,43 34,48 40,32 4,-11 8,-34 8,-52 1,-19 10,-80 22,-135 31,-154 76,-240 192,-362 100,-107 150,-190 233,-392 20,-48 68,-146 108,-217 39,-72 96,-184 127,-250 53,-114 58,-121 88,-124 43,-4 42,5 -24,203 -30,92 -55,170 -55,174 0,4 24,6 53,3 166,-13 424,116 728,364 36,30 74,54 83,54 47,0 126,72 167,152 19,36 24,70 31,203 6,88 13,201 16,250 l 7,90 33,-45 c 76,-102 144,-270 158,-388 9,-80 -11,-138 -78,-227 -66,-86 -149,-156 -348,-293 -91,-63 -188,-140 -235,-187 l -81,-80 38,95 c 60,149 64,155 128,189 75,40 162,106 224,169 l 49,50 -59,-21 C 3367,914 3340,898 3233,811 3108,710 3042,631 2939,459 2891,378 2800,208 2800,198 c 0,-4 31,-8 68,-8 h 68 l 23,48 c 92,190 222,328 468,496 247,169 360,281 419,416 20,47 27,186 11,265 -11,60 9,20 23,-46 7,-33 11,-91 8,-138 C 3877,1050 3753,898 3446,691 3258,564 3167,484 3080,368 2998,259 2965,201 2978,188 c 16,-16 36,1 106,94 83,110 177,211 224,240 19,12 64,27 99,34 l 63,12 v -29 c 0,-33 -47,-185 -90,-288 -16,-40 -25,-69 -20,-66 17,10 123,188 161,270 21,44 44,113 52,153 17,81 22,91 38,75 43,-43 2,-272 -86,-475 -6,-15 -2,-18 24,-18 20,0 31,5 31,14 0,24 14,26 81,13 l 64,-12 -50,-6 c -43,-5 -39,-6 33,-7 l 83,-2 15,36 c 26,62 70,243 89,364 22,148 26,158 67,165 34,6 274,-71 663,-210 88,-32 172,-59 188,-61 15,-2 41,-11 58,-19 30,-16 30,-16 19,4 -6,12 -15,21 -19,21 -5,0 -22,13 -37,29 -48,49 -197,104 -539,202 -115,32 -245,71 -287,86 -77,26 -78,27 -78,61 0,24 4,32 13,29 153,-67 682,-246 693,-234 2,2 -127,47 -288,101 -344,113 -398,137 -412,184 -5,18 -7,35 -4,37 3,3 54,-18 114,-46 60,-28 163,-73 229,-100 260,-107 396,-172 383,-181 -9,-6 -5,-7 10,-3 12,3 22,3 22,-2 0,-5 8,-9 18,-10 9,-1 39,-11 65,-22 63,-27 97,-28 97,-1 0,39 -183,142 -470,263 -146,61 -465,209 -476,220 -3,3 0,32 7,66 15,78 0,182 -42,291 l -31,80 26,31 c 36,43 41,67 41,207 0,67 3,122 8,122 11,0 7,39 -12,112 l -17,66 33,27 c 35,28 42,55 19,74 -23,20 50,147 100,175 50,28 98,100 124,185 28,95 26,117 -15,162 -40,45 -44,59 -14,59 21,0 22,3 15,71 -8,93 -51,271 -80,334 -29,64 -121,170 -164,191 -31,14 -38,14 -84,-1 -58,-19 -71,-13 -89,42 -10,30 -8,49 7,110 18,71 18,78 1,176 -11,65 -28,124 -47,162 -16,33 -44,101 -61,150 -17,50 -41,108 -54,130 -13,22 -26,56 -29,76 -9,50 -56,119 -112,165 -26,21 -76,65 -110,96 -197,180 -406,289 -638,333 -99,19 -307,27 -400,15 z m 364,-80 c 223,-36 433,-144 585,-300 l 60,-62 -90,66 c -240,175 -529,264 -825,253 -356,-14 -674,-145 -818,-338 -40,-54 -57,-50 -23,5 29,46 151,160 219,203 246,157 581,222 892,173 z m 0,-84 c 171,-26 320,-82 459,-173 166,-108 243,-211 257,-344 9,-95 -1,-103 -119,-94 -108,9 -371,-4 -342,-16 146,-60 387,-149 406,-149 39,0 66,26 89,88 19,50 21,70 17,157 -4,55 -9,111 -13,125 -5,18 -4,22 4,15 20,-19 45,-166 39,-231 -6,-65 -44,-142 -95,-196 -33,-36 -78,-37 -180,-2 -223,74 -372,175 -520,352 -110,132 -148,162 -202,162 -51,0 -94,-31 -168,-125 -165,-208 -295,-299 -548,-384 -133,-45 -152,-48 -193,-26 -49,25 -75,102 -76,220 0,55 5,108 10,117 7,12 9,-9 7,-71 -4,-99 8,-159 42,-197 l 23,-27 184,80 c 101,44 212,91 247,103 34,13 62,25 62,28 0,3 -55,2 -122,-1 -86,-4 -160,-15 -246,-37 -68,-16 -128,-28 -132,-25 -19,12 -22,74 -6,127 36,122 160,279 290,366 119,79 289,141 448,161 103,14 276,12 378,-3 z m -141,-360 c 11,-13 7,-13 -23,-5 -24,7 -49,7 -73,0 -34,-9 -36,-9 -19,4 26,19 100,19 115,1 z m 35,-86 c 26,-17 87,-68 136,-115 111,-104 204,-170 324,-229 127,-62 233,-96 298,-96 51,0 54,1 109,60 31,33 61,60 66,60 18,0 24,32 28,145 3,87 1,115 -11,134 -11,16 -12,22 -3,19 17,-6 63,-89 94,-171 26,-71 18,-82 -14,-19 -10,20 -29,46 -41,57 l -23,20 17,-34 c 26,-50 13,-123 -29,-170 -18,-20 -35,-45 -39,-56 -10,-33 -53,-72 -92,-85 -47,-16 -108,-8 -209,26 -189,63 -327,145 -485,290 -97,88 -173,134 -223,134 -51,0 -99,-29 -186,-114 -156,-150 -252,-211 -461,-289 -181,-67 -264,-72 -319,-17 -44,45 -91,177 -91,257 0,65 27,166 43,160 11,-3 11,-5 -3,-89 -22,-129 9,-265 69,-305 41,-27 121,-22 226,15 220,79 334,146 475,278 153,145 181,164 245,164 40,0 62,-7 99,-30 z m -42,-88 c 20,-11 79,-59 132,-107 53,-49 124,-108 157,-132 138,-96 408,-203 511,-203 39,0 68,7 101,25 l 46,24 72,-84 c 40,-47 75,-83 77,-80 6,6 -40,67 -96,127 -35,38 -42,51 -33,62 6,7 27,46 47,86 l 35,72 27,-17 c 15,-10 37,-27 49,-38 24,-22 63,-114 63,-149 0,-17 -8,-11 -42,28 -58,66 -100,106 -106,99 -3,-3 19,-31 49,-62 92,-97 109,-124 109,-175 0,-25 -7,-65 -15,-88 -19,-53 -19,-101 -1,-143 19,-45 44,-64 99,-71 26,-4 47,-10 47,-12 0,-3 -14,-26 -31,-50 -46,-67 -104,-197 -134,-299 -40,-139 -61,-281 -80,-537 -5,-70 -10,-88 -22,-88 -14,0 -15,18 -9,157 12,271 33,396 101,596 24,70 39,127 34,127 -20,0 -59,-54 -79,-108 -51,-136 -80,-338 -98,-677 -8,-156 -10,-163 -44,-235 -48,-100 -148,-216 -232,-268 -36,-23 -70,-42 -76,-42 -19,0 -10,15 26,39 49,34 149,143 196,216 66,101 75,152 87,480 6,160 11,352 11,428 0,116 3,146 21,195 34,88 35,132 6,194 -47,104 -103,146 -291,222 -153,62 -261,87 -533,122 -51,6 -89,36 -145,111 -39,53 -40,54 -85,51 -44,-3 -47,-5 -82,-62 -52,-86 -68,-94 -194,-106 -338,-32 -637,-124 -720,-220 -39,-46 -67,-119 -67,-179 l -1,-36 -23,45 c -13,25 -27,59 -30,76 -4,17 -25,52 -47,79 -48,58 -48,70 -3,216 25,80 59,139 81,139 4,0 26,-33 48,-72 55,-98 78,-113 168,-112 57,0 98,9 193,42 242,83 344,142 493,287 133,130 162,143 233,107 z m 63,-331 c 39,-40 60,-68 48,-62 -24,12 -123,120 -123,135 0,5 1,7 3,5 1,-3 34,-38 72,-78 z m -646,-115 c -2,-3 -49,-19 -104,-36 -113,-37 -179,-67 -247,-116 -27,-19 -48,-30 -48,-25 0,17 65,64 135,97 87,41 285,101 264,80 z m 776,-52 c 199,-24 444,-95 509,-148 29,-23 30,-25 37,-157 5,-74 11,-152 14,-175 l 6,-41 -53,12 c -29,7 -88,20 -130,30 -57,13 -97,16 -155,12 -82,-7 -243,-46 -293,-72 -43,-22 -273,-21 -326,1 -71,31 -218,64 -282,64 -35,0 -107,-9 -160,-19 -54,-10 -112,-22 -131,-25 l -34,-6 6,124 c 6,124 17,167 50,195 13,10 16,3 22,-55 9,-83 25,-66 25,27 0,75 1,76 80,107 124,49 313,81 480,83 52,0 115,4 140,8 40,6 34,8 -55,14 -55,4 -167,7 -250,7 -175,1 -179,16 -8,29 133,11 349,5 508,-15 z m 434,-5 c 45,-17 81,-35 81,-40 0,-13 -3,-12 -88,18 -79,27 -123,53 -90,53 9,0 53,-14 97,-31 z m -1205,2 c -5,-5 -40,-19 -79,-31 -38,-13 -99,-36 -134,-51 -35,-16 -68,-26 -74,-22 -15,9 75,52 188,89 94,31 121,35 99,15 z m -327,-189 c -39,-41 -37,-63 4,-42 26,15 24,1 -6,-30 -18,-18 -23,-32 -18,-49 l 6,-24 24,29 23,29 -9,-32 c -7,-25 -5,-46 10,-88 21,-59 25,-100 9,-90 -5,3 -10,16 -10,28 0,12 -11,40 -25,62 -75,121 -82,169 -34,209 41,35 60,33 26,-2 z m 1816,-4 c 23,-31 35,-126 19,-153 -7,-14 -11,-6 -16,38 -4,31 -18,77 -32,103 -20,38 -22,45 -8,42 9,-2 26,-15 37,-30 z M 1354,3316 c 14,-30 26,-60 26,-65 0,-6 4,-11 10,-11 5,0 22,-19 38,-43 37,-53 75,-76 97,-57 24,20 42,-39 65,-208 19,-139 24,-201 34,-504 5,-140 -1,-154 -43,-98 -19,27 -26,61 -47,253 -26,239 -40,326 -55,360 -7,17 -8,14 -5,-18 22,-184 56,-570 52,-582 -9,-23 -23,-7 -30,37 -3,22 -22,194 -41,383 -19,188 -41,367 -49,397 -16,65 -20,33 -6,-60 5,-36 19,-167 30,-292 11,-125 27,-280 35,-345 7,-65 12,-119 10,-121 -7,-7 -45,19 -54,36 -5,10 -21,108 -35,218 -35,281 -39,295 -87,334 -48,39 -46,50 4,18 35,-23 41,-33 66,-126 7,-23 16,-40 21,-37 5,3 4,19 -1,38 -5,17 -14,95 -19,172 -9,142 -24,217 -61,301 -37,88 5,105 45,20 z m 2071,-57 c 5,-26 2,-39 -9,-48 -13,-11 -14,-8 -10,21 3,18 -2,53 -10,77 -9,24 -16,46 -16,50 2,15 39,-69 45,-100 z m -2100,-92 c 4,-26 -7,-1 -28,63 -18,58 -31,109 -28,115 7,12 49,-122 56,-178 z m 132,82 c -24,-55 -34,-9 -11,49 19,46 19,47 22,16 2,-17 -3,-47 -11,-65 z m -200,15 c 7,-27 22,-92 33,-143 20,-101 17,-117 -23,-123 -36,-5 -32,-35 8,-71 21,-17 41,-42 46,-55 5,-12 23,-134 39,-270 17,-136 34,-257 37,-269 7,-31 -3,-29 -73,13 -75,45 -101,69 -125,117 -39,76 -119,504 -119,637 0,108 11,133 83,179 34,22 66,39 72,37 5,-1 15,-25 22,-52 z m 2649,-16 c -150,-205 -209,-392 -236,-748 -5,-74 -10,-150 -10,-167 0,-26 -4,-33 -20,-33 -24,0 -24,3 -10,191 21,267 67,464 146,621 54,109 93,158 122,158 24,0 24,-1 8,-22 z m 44,-23 c 0,-3 -11,-22 -24,-43 -78,-123 -142,-294 -170,-452 -19,-101 -36,-281 -36,-367 0,-56 -2,-63 -20,-63 -24,0 -25,16 -10,206 25,309 94,543 206,692 21,27 54,44 54,27 z m 56,-32 c 25,-25 50,-88 65,-160 l 13,-63 -31,-32 c -17,-18 -38,-47 -46,-64 -32,-64 -87,-318 -87,-403 0,-35 6,-51 27,-73 l 26,-27 -54,-105 -54,-105 -5,67 -5,67 -54,3 -54,3 6,147 c 11,248 46,420 119,582 31,69 99,180 110,180 4,0 14,-8 24,-17 z m -756,-133 c 55,-28 62,-47 58,-154 -5,-138 -53,-226 -153,-280 -34,-18 -56,-21 -155,-21 -103,0 -121,3 -170,26 -70,33 -135,91 -199,178 -57,77 -105,107 -154,97 -46,-9 -72,-30 -111,-89 -86,-130 -202,-204 -332,-214 -135,-11 -220,31 -276,133 -52,96 -61,242 -18,297 25,32 109,48 241,46 52,-1 83,-3 69,-5 -80,-12 -133,-28 -166,-51 -36,-24 -39,-24 -65,-9 -27,16 -27,16 -34,-15 -10,-43 26,-64 64,-40 10,7 28,0 60,-22 40,-28 56,-32 125,-36 51,-2 100,2 140,13 33,8 71,17 84,18 23,3 22,4 -14,47 -34,40 -36,43 -13,36 45,-14 79,-35 95,-60 15,-24 15,-29 0,-68 -23,-58 -112,-166 -167,-199 -98,-61 -233,-58 -330,8 -37,26 -48,30 -40,16 36,-68 143,-110 246,-98 93,11 143,35 216,103 87,83 129,161 129,243 0,56 1,58 31,64 40,8 147,8 177,0 20,-6 22,-13 22,-66 0,-116 93,-249 218,-310 61,-30 74,-33 162,-33 149,0 215,35 261,137 20,45 23,70 24,160 0,92 -3,110 -19,125 -18,17 -18,17 -8,-2 21,-41 25,-159 9,-216 -20,-66 -73,-131 -125,-152 -92,-37 -214,-31 -305,15 -56,28 -124,100 -153,161 -23,50 -31,120 -16,143 10,16 62,41 102,48 33,7 31,4 -27,-35 -35,-23 -63,-45 -63,-49 0,-4 17,-8 38,-8 20,0 58,-7 82,-16 107,-36 193,-33 255,9 28,20 40,23 55,15 10,-5 31,-10 47,-10 26,1 26,1 8,12 -11,6 -37,28 -57,49 -38,38 -112,69 -165,69 -15,0 -22,4 -17,11 5,8 49,10 151,5 116,-5 152,-10 183,-26 z m 134,-36 c 10,-26 7,-132 -4,-139 -6,-4 -10,16 -10,52 0,32 -3,68 -6,81 -7,25 11,31 20,6 z m -2054,-24 c -24,-15 -37,-11 -16,5 11,8 22,12 25,9 3,-3 -1,-9 -9,-14 z m 330,-62 c 10,-71 29,-143 55,-213 7,-19 7,-19 -8,0 -8,12 -23,46 -32,78 -9,31 -21,59 -26,62 -8,6 -14,155 -5,155 2,0 9,-37 16,-82 z m 320,57 c 0,-30 47,-65 86,-65 29,0 44,7 69,35 l 33,34 25,-19 c 14,-11 31,-20 39,-21 39,-2 -79,-31 -148,-36 -68,-5 -87,-2 -127,15 -54,24 -58,35 -19,56 35,19 42,19 42,1 z m 70,0 c 7,-8 23,-15 36,-15 13,0 24,-5 24,-11 0,-6 -17,-9 -42,-7 -36,2 -44,7 -46,26 -4,25 10,29 28,7 z m 790,2 c 0,-16 37,-51 63,-60 26,-10 84,17 92,42 7,23 25,27 43,9 18,-18 15,-26 -15,-42 -49,-24 -107,-29 -173,-12 -34,9 -78,16 -98,16 h -37 l 50,30 c 55,33 75,37 75,17 z m 60,4 c 0,-5 12,-14 28,-19 24,-9 25,-10 8,-17 -10,-5 -26,-4 -35,2 -19,12 -27,43 -12,43 6,0 11,-4 11,-9 z M 1079,2768 c 9,-60 14,-108 11,-108 -4,0 -15,17 -25,38 -15,29 -19,63 -21,162 -3,138 -1,133 35,-92 z m 3018,147 c 3,-9 -9,-47 -26,-85 -48,-102 -79,-270 -59,-309 22,-43 33,-33 51,46 22,100 28,109 57,93 19,-10 21,-17 16,-53 -12,-76 -49,-140 -103,-179 -47,-34 -51,-35 -78,-21 l -28,15 6,80 c 8,96 52,288 79,343 22,43 56,85 70,85 5,0 11,-7 15,-15 z m -1565,-56 c 13,-6 41,-37 63,-70 80,-121 185,-194 313,-219 66,-13 169,-9 234,10 85,25 174,123 204,226 17,59 44,75 44,27 0,-51 -41,-277 -60,-331 -11,-30 -40,-87 -64,-127 -51,-80 -139,-295 -139,-337 0,-22 -5,-27 -35,-33 -51,-9 -82,-45 -82,-95 0,-50 14,-51 39,-2 11,21 27,44 35,51 14,12 16,9 16,-27 0,-31 -4,-42 -19,-47 -10,-3 -42,-30 -70,-60 -28,-29 -53,-49 -57,-44 -3,6 -27,-10 -53,-34 -53,-50 -93,-73 -133,-78 -24,-4 -32,3 -60,50 -42,69 -69,79 -213,80 -138,1 -181,-15 -209,-78 -29,-62 -53,-57 -156,35 -47,42 -101,87 -121,99 -20,13 -63,46 -96,74 -34,27 -64,47 -68,43 -5,-4 -5,-2 -2,4 4,6 -2,19 -13,29 -33,30 -76,184 -85,306 l -6,74 26,-40 c 14,-22 37,-78 51,-125 69,-228 97,-301 111,-286 4,4 -56,306 -63,319 -4,7 -29,42 -57,80 -67,92 -88,151 -94,270 -3,53 -3,97 1,97 4,0 18,-13 31,-28 127,-151 396,-146 560,9 l 55,52 -5,-129 c -8,-176 11,-154 30,35 8,79 21,157 30,175 24,49 70,67 117,45 z m 907,-467 c 1,-66 -3,-101 -9,-97 -6,4 -9,63 -9,148 1,105 4,130 10,97 4,-25 8,-91 8,-148 z m -146,-134 c -13,-91 -39,-207 -48,-216 -3,-3 -11,1 -20,8 -8,7 -28,10 -44,8 l -28,-4 48,98 c 27,54 49,101 49,104 0,8 49,94 54,94 1,0 -3,-42 -11,-92 z m 535,-59 3,-36 -58,-6 c -74,-8 -100,-1 -107,28 -12,48 0,56 83,53 l 76,-3 z m -198,-14 c 0,-19 -4,-35 -10,-35 -12,0 -24,45 -15,59 13,22 25,10 25,-24 z m -240,-40 c 0,-8 -4,-15 -10,-15 -5,0 -10,7 -10,15 0,8 5,15 10,15 6,0 10,-7 10,-15 z m 298,-95 c 44,-44 68,-60 87,-60 37,0 24,-14 -69,-79 l -73,-50 -32,33 c -18,18 -61,50 -97,71 -35,21 -64,40 -64,42 0,3 16,27 36,54 36,49 36,49 94,49 58,0 59,0 118,-60 z m -357,13 c -12,-24 -61,-69 -61,-57 0,11 55,74 65,74 3,0 1,-8 -4,-17 z m 539,2 c 0,-8 -7,-15 -15,-15 -8,0 -15,7 -15,15 0,8 7,15 15,15 8,0 15,-7 15,-15 z m -72,-17 c 19,-19 14,-30 -10,-26 -13,2 -24,11 -26,21 -4,20 18,23 36,5 z m 75,-45 c 8,-45 -8,-62 -22,-23 -14,43 -14,50 3,50 7,0 16,-12 19,-27 z m -657,-6 c 31,-27 28,-57 -5,-57 -11,0 -27,-9 -35,-21 -19,-28 -36,-16 -36,24 0,33 23,77 40,77 5,0 21,-11 36,-23 z M 1950,1868 c 30,-25 62,-47 70,-49 11,-3 14,-13 10,-37 l -5,-32 -61,49 c -62,50 -96,95 -108,141 l -7,25 23,-26 c 13,-14 48,-46 78,-71 z m 1498,60 c 67,-46 123,-99 116,-110 -7,-11 -37,8 -110,67 -29,24 -58,45 -65,47 -11,4 -5,28 7,28 3,0 26,-14 52,-32 z m 366,18 c -6,-16 -230,-186 -244,-186 -24,0 -5,23 53,61 34,24 91,64 126,91 71,53 73,54 65,34 z m 54,-172 c -2,-94 -6,-116 -21,-131 -18,-17 -19,-17 -35,7 -10,13 -41,53 -69,88 -29,36 -53,67 -52,71 0,3 35,33 77,67 l 77,60 13,-24 c 10,-17 13,-56 10,-138 z m -2113,74 c -93,-153 -120,-245 -112,-388 7,-110 35,-216 83,-313 32,-64 138,-230 173,-271 13,-16 13,-18 1,-13 -8,3 -62,26 -120,50 -58,24 -127,52 -155,61 -44,15 -58,27 -111,99 -87,117 -104,149 -104,193 1,120 114,421 192,510 35,40 142,114 165,114 10,0 7,-12 -12,-42 z m 1605,22 c 0,-5 25,-43 55,-85 42,-60 55,-85 55,-113 v -37 l -26,38 c -14,21 -27,37 -30,35 -2,-2 4,-26 13,-53 21,-66 24,-342 4,-438 -23,-115 -113,-225 -296,-362 -166,-123 -425,-247 -425,-202 0,36 86,152 195,265 88,90 115,122 97,119 -28,-5 -26,-3 63,59 108,75 227,195 264,264 42,78 47,132 27,300 -18,156 -21,234 -6,225 6,-3 10,-10 10,-15 z m -122,-39 c -34,-31 -48,-38 -48,-22 0,15 74,75 78,63 2,-6 -12,-25 -30,-41 z m -98,9 c 30,-30 27,-84 -5,-98 -40,-18 -65,-15 -65,8 0,29 -17,25 -24,-6 -8,-29 -30,-27 -34,4 -4,27 24,70 63,93 38,24 41,23 65,-1 z m -1650,-57 c -146,-134 -220,-291 -223,-478 -2,-94 0,-104 30,-168 54,-113 227,-270 337,-307 33,-10 35,-14 29,-43 -8,-46 -17,-51 -54,-32 -122,62 -255,196 -325,328 l -39,72 v 125 c 1,119 2,130 36,215 19,50 51,115 72,146 35,53 188,209 204,209 4,0 -26,-30 -67,-67 z m 1750,-78 c -26,-93 -57,-174 -104,-278 -41,-88 -33,-94 14,-11 31,52 78,180 96,254 l 8,35 7,-45 c 4,-25 8,-64 8,-87 2,-80 30,-40 31,42 0,22 4,46 9,54 12,18 24,-125 16,-175 -12,-67 -67,-155 -145,-234 -172,-174 -371,-262 -597,-264 -90,-1 -113,3 -208,34 l -107,35 -92,105 c -182,207 -231,303 -251,490 -3,30 -8,73 -11,95 l -5,40 77,-75 c 87,-86 157,-177 233,-303 68,-113 173,-255 178,-240 2,6 -3,25 -11,42 -9,16 -16,32 -16,34 0,2 33,-7 72,-21 63,-21 87,-24 175,-20 l 103,4 6,-36 c 4,-19 9,-39 12,-44 2,-4 22,24 42,64 28,52 68,102 147,183 109,112 232,267 295,372 40,68 46,51 18,-50 z m 320,10 c 33,-106 39,-175 15,-175 -11,0 -15,11 -15,40 0,22 -4,40 -10,40 -5,0 -10,-18 -10,-40 0,-22 -4,-40 -10,-40 -6,0 -10,38 -10,95 0,52 -5,105 -11,119 -9,20 -9,29 1,41 7,8 14,15 16,15 2,0 17,-43 34,-95 z m -921,51 c 19,-10 43,-38 62,-71 19,-34 38,-55 48,-55 38,0 109,33 155,70 27,22 50,40 52,40 3,0 9,-12 14,-26 9,-23 4,-33 -51,-100 -111,-137 -155,-155 -375,-162 -233,-6 -282,14 -419,178 -41,50 -75,92 -75,95 0,13 14,35 22,35 5,0 37,-25 70,-55 62,-55 129,-88 136,-67 2,6 15,35 30,64 24,47 32,54 72,65 61,17 218,10 259,-11 z m 995,-41 c 18,-27 20,-35 8,-35 -15,0 -53,41 -47,51 10,15 22,10 39,-16 z m -64,-285 v -80 l -27,6 c -16,4 -29,7 -29,8 -6,5 22,133 30,138 23,16 26,6 26,-72 z m -75,-285 c -33,-57 -48,-66 -31,-18 7,21 19,72 25,113 18,108 25,116 29,27 3,-69 0,-84 -23,-122 z m 74,163 c 0,-13 -4,-41 -8,-63 -11,-56 -26,-20 -17,40 7,46 26,63 25,23 z M 1401,1103 c 57,-75 86,-100 143,-118 211,-69 374,-145 426,-200 31,-33 32,-35 10,-26 -192,81 -426,178 -465,193 -77,30 -109,54 -153,111 -48,62 -79,136 -87,209 l -6,53 46,-85 c 26,-47 64,-108 86,-137 z m -182,-5 c 5,-13 7,-26 5,-29 -2,-3 -38,-19 -81,-34 -124,-45 -520,-227 -625,-287 -53,-31 -94,-50 -92,-43 10,26 159,112 374,215 124,60 263,129 310,154 47,24 89,44 93,45 4,1 11,-9 16,-21 z m 1721,-95 c -19,-15 -76,-67 -125,-117 -69,-69 -100,-110 -130,-169 l -40,-79 -74,7 c -41,3 -82,10 -91,15 -9,5 -31,44 -49,87 -18,43 -54,120 -81,170 l -48,93 41,-28 c 86,-57 122,-67 247,-66 103,0 123,3 195,31 44,16 103,42 130,56 63,33 69,33 25,0 z m 950,-34 c 0,-42 -6,-46 -35,-26 -17,13 -17,15 0,45 23,39 35,32 35,-19 z m -2597,-3 c 7,-19 -99,-59 -238,-90 -60,-14 -111,-24 -113,-22 -2,2 27,15 65,29 37,15 109,42 158,61 102,38 121,42 128,22 z m 2597,-88 c 0,-6 -8,-7 -17,-3 -10,4 -35,9 -56,12 -35,5 -37,7 -22,23 15,16 18,16 55,-2 22,-11 40,-25 40,-30 z m -33,-33 c 57,-24 28,-37 -40,-18 -37,11 -53,19 -45,25 19,12 45,10 85,-7 z m -12,-59 c 50,-21 44,-38 -6,-21 -23,8 -52,15 -65,15 -13,0 -24,5 -24,10 0,15 56,12 95,-4 z m -15,-52 c 22,-9 40,-21 40,-26 0,-6 -7,-7 -17,-2 -10,4 -42,12 -70,18 -29,6 -53,14 -53,18 0,14 58,9 100,-8 z m 6,-59 c 20,-8 33,-19 29,-25 -3,-6 -12,-7 -18,-3 -7,4 -39,15 -72,24 l -60,18 h 43 c 23,1 59,-6 78,-14 z m -16,-51 c 22,-9 40,-20 40,-25 0,-13 -12,-11 -53,6 -20,8 -53,15 -72,15 -22,0 -34,4 -30,10 9,15 70,12 115,-6 z m -4,-55 c 51,-26 38,-39 -18,-17 -29,11 -65,18 -80,16 -28,-5 -38,6 -15,16 19,8 81,0 113,-15 z m -5,-55 c 45,-23 28,-29 -27,-10 -26,9 -61,16 -76,16 -19,0 -27,4 -22,11 9,15 84,5 125,-17 z m -14,-49 c 19,-8 32,-19 28,-25 -4,-6 -16,-5 -35,5 -16,9 -50,18 -75,21 -25,4 -42,11 -39,16 8,12 73,3 121,-17 z m -17,-50 c 17,-9 30,-22 30,-29 0,-12 -9,-11 -47,4 -27,11 -60,22 -75,25 -16,3 -28,10 -28,17 0,15 81,3 120,-17 z m -30,-53 c 26,-10 46,-25 48,-35 3,-17 1,-17 -36,2 -22,11 -59,23 -81,27 -23,4 -41,10 -41,15 0,15 62,9 110,-9 z m -2,-63 c 24,-10 41,-23 37,-29 -4,-6 -18,-5 -40,4 -19,8 -55,18 -80,21 -43,7 -53,14 -38,28 9,10 71,-2 121,-24 z m -50,-44 c 77,-23 72,-35 -6,-14 -84,24 -92,27 -66,28 11,1 43,-6 72,-14 z"
             id="path1"
             style="display:inline" /><path
             d="m 1378,3763 c -31,-37 -75,-109 -87,-143 -15,-46 -1,-29 39,45 18,33 38,67 45,75 29,36 32,56 3,23 z"
             id="path2" /><path
             d="m 3129,3312 c 5,-10 18,-25 27,-33 16,-13 16,-12 0,19 -9,17 -21,32 -27,32 -6,0 -6,-6 0,-18 z"
             id="path3"
             style="display:inline" /><path
             d="m 2397,3295 c 12,-48 7,-135 -9,-151 -12,-12 -21,-9 -64,21 -38,27 -80,43 -165,64 -63,16 -143,40 -178,55 -36,14 -68,26 -72,26 -16,0 -83,-66 -111,-109 -25,-40 -37,-81 -23,-81 2,0 33,16 68,35 35,19 78,35 95,35 32,0 304,-68 381,-95 60,-21 69,-19 91,18 27,43 26,129 0,177 -20,34 -20,35 -13,5 z m -201,-106 c 47,-28 43,-34 -6,-9 -22,11 -40,23 -40,25 0,9 13,5 46,-16 z"
             id="path4" /><path
             d="m 2990,3294 c -127,-40 -228,-66 -257,-66 -18,1 -45,-9 -65,-23 -18,-14 -44,-33 -58,-42 -30,-21 -28,-45 5,-63 18,-10 31,-10 52,-2 15,6 102,32 192,57 163,45 193,47 236,20 11,-7 43,-19 72,-27 47,-14 51,-14 45,1 -13,37 -66,103 -100,125 -52,33 -71,37 -122,20 z m 57,-40 c -3,-3 -12,-4 -19,-1 -8,3 -5,6 6,6 11,1 17,-2 13,-5 z m -317,-38 c 0,-2 -8,-10 -17,-17 -16,-13 -17,-12 -4,4 13,16 21,21 21,13 z m 89,0 c -2,-2 -15,-9 -29,-15 -24,-11 -24,-11 -6,3 16,13 49,24 35,12 z"
             id="path5" /><path
             d="m 2516,3284 c -10,-26 -7,-132 4,-139 6,-4 10,23 10,74 0,82 -3,94 -14,65 z"
             id="path6" /><path
             d="m 1798,2923 c 12,-2 30,-2 40,0 9,3 -1,5 -23,4 -22,0 -30,-2 -17,-4 z"
             id="path7" /><path
             d="m 2120,2873 c -57,-11 -88,-13 -130,-5 -30,5 -57,8 -59,6 -2,-2 13,-12 35,-21 55,-25 199,-25 237,0 15,10 25,22 22,27 -7,12 -9,12 -105,-7 z"
             id="path8"
             style="display:inline" /><path
             d="m 2750,2884 c 0,-3 24,-16 53,-29 60,-28 190,-45 201,-26 5,7 -3,11 -21,12 -25,0 -23,2 12,13 23,7 50,18 60,25 22,14 18,13 -68,-11 -28,-8 -58,-7 -126,6 -97,17 -111,19 -111,10 z"
             id="path9" /><path
             d="m 3146,2478 c -76,-136 -88,-173 -97,-295 -10,-137 1,-177 25,-93 24,82 36,156 36,217 0,29 6,68 14,86 8,18 26,58 40,90 14,31 24,57 21,57 -2,0 -20,-28 -39,-62 z"
             id="path10"
             style="display:inline" /><path
             d="m 1880,2470 c 43,-85 60,-160 60,-265 0,-87 12,-159 29,-169 4,-3 9,47 9,112 2,132 -15,196 -82,316 -46,83 -56,86 -16,6 z"
             id="path11"
             style="display:inline" /><path
             d="m 2276,2490 c -19,-17 -37,-44 -41,-60 -8,-38 16,-84 55,-100 16,-7 30,-16 30,-21 0,-5 -18,-18 -40,-29 -22,-11 -40,-24 -40,-29 0,-4 -22,-20 -49,-34 -51,-28 -98,-87 -108,-137 l -5,-30 46,26 c 26,14 59,28 74,30 112,15 107,12 134,84 17,44 17,44 12,8 -13,-80 28,-72 52,10 25,87 26,88 31,75 2,-6 -3,-35 -11,-64 -21,-69 -20,-79 4,-79 14,0 25,11 34,30 15,36 26,29 26,-17 0,-28 3,-33 24,-33 39,0 50,23 42,93 -4,42 -3,57 4,47 5,-8 10,-22 10,-30 0,-8 5,-31 10,-51 8,-30 15,-36 35,-36 21,0 24,3 19,21 -6,17 0,15 31,-13 56,-49 68,-26 22,43 -21,31 -37,59 -37,63 1,14 40,-40 65,-88 23,-44 58,-68 70,-48 7,10 -16,52 -52,98 -17,20 -22,32 -13,29 8,-2 35,-38 60,-78 28,-45 55,-76 70,-82 14,-5 35,-19 47,-30 l 23,-21 v 25 c 0,28 -27,66 -83,117 -50,45 -39,52 17,10 92,-70 111,-129 81,-254 -8,-33 -15,-71 -15,-85 1,-47 27,5 50,101 22,87 22,91 5,135 -34,90 -89,133 -220,173 -38,12 -81,28 -95,35 l -24,14 36,15 c 51,22 74,67 59,118 -11,38 -55,83 -75,76 -16,-5 -19,-27 -3,-27 20,0 47,-43 47,-74 0,-23 -3,-24 -34,-19 -29,5 -40,0 -77,-34 -73,-67 -114,-66 -188,6 -44,42 -85,53 -109,29 -9,-9 -12,-5 -12,18 0,21 10,40 30,59 53,51 32,64 -24,15 z m 4,-284 c -12,-26 -26,-46 -31,-46 -6,0 2,22 18,49 34,61 43,59 13,-3 z m -74,-31 c -9,-14 -21,-25 -27,-25 -5,0 0,13 12,30 27,35 39,32 15,-5 z"
             id="path12"
             style="display:inline" /><path
             d="m 2181,2253 c -65,-23 -136,-98 -155,-164 -19,-62 -20,-91 -5,-158 17,-81 26,-68 25,37 -1,90 1,101 29,150 16,30 46,65 68,80 44,30 95,72 87,71 -3,0 -25,-8 -49,-16 z"
             id="path13" /><path
             d="m 2328,2115 c -3,-3 -38,-12 -79,-21 -101,-20 -127,-32 -144,-65 -20,-37 -20,-162 -1,-178 11,-9 15,-5 20,20 3,17 6,56 6,85 0,67 12,76 134,100 73,14 103,16 160,7 49,-7 91,-7 135,1 51,8 83,7 164,-7 55,-9 106,-22 113,-28 7,-6 16,-24 19,-40 8,-37 29,-33 33,7 5,45 -29,67 -149,99 -110,28 -156,29 -216,4 -28,-11 -37,-11 -68,4 -33,16 -115,23 -127,12 z"
             id="path14" /><path
             d="m 2236,2010 c 34,-13 193,-30 279,-30 72,1 230,22 241,33 3,2 -118,4 -268,5 -150,0 -264,-4 -252,-8 z"
             id="path15" /><path
             d="m 2285,1925 c 48,-44 49,-45 37,-78 -7,-18 -12,-35 -12,-38 0,-2 83,-4 185,-4 102,0 185,1 185,3 0,2 -9,12 -20,24 -30,32 -25,51 25,87 59,42 67,57 17,32 -94,-48 -318,-49 -411,-2 -60,31 -62,25 -6,-24 z"
             id="path16" /><path
             d="m 1935,1690 c 15,-53 90,-195 142,-266 30,-41 57,-74 59,-74 6,0 3,4 -45,80 -19,30 -64,107 -99,170 -35,63 -60,104 -57,90 z"
             id="path17" /><path
             d="m 2071,1743 c 7,-22 113,-103 156,-119 32,-13 45,-24 53,-49 6,-17 24,-45 41,-61 l 30,-29 -35,59 c -20,33 -36,63 -36,67 0,3 -20,14 -44,23 -24,9 -64,34 -88,54 -69,59 -82,68 -77,55 z"
             id="path18" /><path
             d="m 2908,1688 c -20,-17 -64,-40 -99,-52 -54,-19 -65,-27 -95,-74 -19,-28 -29,-52 -24,-52 6,0 24,22 40,48 23,38 38,51 69,61 51,15 153,72 159,89 6,20 -10,13 -50,-20 z"
             id="path19"
             style="display:inline" /><path
             d="m 2359,1595 c 16,-30 40,-59 45,-54 2,2 -10,20 -26,39 -17,19 -25,26 -19,15 z"
             id="path20" /><path
             d="m 2639,1483 c -13,-16 -12,-17 4,-4 16,13 21,21 13,21 -2,0 -10,-8 -17,-17 z"
             id="path21" /><path
             d="m 1860,1249 c 0,-59 151,-276 247,-354 43,-35 40,-30 -28,45 -107,119 -147,175 -185,255 -19,38 -34,62 -34,54 z"
             id="path22" /><path
             d="M 1010,804 C 895,773 684,697 606,658 516,613 418,546 380,504 c -15,-16 7,-5 55,30 124,88 242,143 465,217 189,63 242,88 110,53 z"
             id="path23"
             style="display:inline" /><path
             d="m 1900,693 c 125,-70 252,-227 340,-417 21,-47 44,-86 50,-86 14,0 6,28 -32,103 -102,204 -224,347 -350,413 -74,38 -80,28 -8,-13 z"
             id="path24" /><path
             d="m 4125,653 c 39,-14 158,-58 265,-98 237,-89 244,-91 199,-66 -47,26 -256,109 -390,155 -120,41 -182,49 -74,9 z"
             id="path25" /><path
             d="m 1971,574 c 70,-75 108,-131 171,-252 28,-53 55,-105 60,-115 5,-10 12,-17 14,-14 7,7 -71,160 -123,242 -60,92 -106,149 -146,176 -23,17 -17,7 24,-37 z"
             id="path26"
             style="display:inline" /></g></g><rect
         style="display:inline;fill:#f3807b;fill-opacity:1;stroke-width:2.85415"
         id="rect9"
         width="1219.8982"
         height="1063.8922"
         x="-516.35834"
         y="-149.44577"
         transform="rotate(-20)" /><rect
         style="display:inline;fill:#ffcd3c;fill-opacity:1;stroke-width:2.24574"
         id="rect10"
         width="1110.4257"
         height="723.59143"
         x="-442.59436"
         y="218.75549"
         transform="rotate(-20)" /><rect
         style="display:inline;fill:#35d0ba;fill-opacity:1;stroke-width:1.60679"
         id="rect11"
         width="1097.436"
         height="374.80447"
         x="-448.95538"
         y="433.78561"
         transform="rotate(-20)" /></g></g></svg>
